<?xml version="1.0" encoding="utf-8"?>
<svg version="1.1" id="Layer_1" xmlns="http://www.w3.org/2000/svg" xmlns:xlink="http://www.w3.org/1999/xlink" x="0px" y="0px"
	 viewBox="0 0 4006.368 1544.462" enable-background="new 0 0 4006.368 1544.462" xml:space="preserve">
<g id="Red_Heart">
	<g id="Brain_Silhouette">
	</g>
	<g>
		<g>
			<g>
				<path fill="none" stroke="#000000" stroke-width="7" stroke-linecap="round" stroke-linejoin="round" d="M1488.059,1113.092
					c2.755,4.771,188.995-115.478,191.75-110.707c2.094,3.627-132.934,100.973-130.84,104.599
					c1.518,2.63,100.958-61.795,102.477-59.165"/>
				<path fill="none" stroke="#000000" stroke-width="7" stroke-linecap="round" stroke-linejoin="round" d="M1072.575,1315.591
					c9.059,15.691,611.875-374.188,620.935-358.497c8.746,15.148-603.731,352.96-594.986,368.108
					c8.474,14.677,581.794-355.469,590.268-340.792c7.862,13.617-533.62,331.597-525.758,345.214
					c4.739,8.208,324.415-198.245,329.154-190.037c4.061,7.034-266.101,184.992-262.04,192.025
					c3.492,6.048,238.656-145.852,242.148-139.804c2.91,5.039-193.409,128.707-190.499,133.746
					c2.563,4.44,173.58-106.136,176.144-101.697c1.448,2.508-89.486,72.801-88.038,75.31c0.689,1.194,46.884-28.661,47.573-27.467"
					/>
				<path fill="none" stroke="#000000" stroke-width="7" stroke-linecap="round" stroke-linejoin="round" d="M247.644,146.73
					c0.63,1.091,44.46-27.124,45.09-26.033c2.401,4.159-148.063,121.075-145.662,125.234
					c5.377,9.314,368.364-225.093,373.741-215.78C527.787,42.231,49.046,326.614,56.02,338.693
					c7.709,13.352,527.913-322.594,535.622-309.241c8.279,14.339-565.356,343.878-557.078,358.217
					C43.922,403.877,680.28-6.748,689.638,9.461c9.9,17.147-682.323,401.293-672.423,418.44
					C27.729,446.112,737.472-12.221,747.986,5.99C758.815,24.746-0.698,441.168,10.131,459.924
					c11.259,19.5,767.778-469.277,779.036-449.777c11.5,19.918-789.582,470.96-778.082,490.879
					C23.518,522.562,859.852-17.725,872.286,3.811C885.085,25.98-9.479,523.285,3.32,545.455
					C16.691,568.615,918.097-13.572,931.469,9.588C945.053,33.116-9.024,553.342,4.56,576.87
					C18.447,600.922,950.722-1.465,964.608,22.586C978.573,46.775-0.615,584.323,13.351,608.511
					C27.726,633.41,999.318,6.064,1013.694,30.963c14.452,25.032-1005.483,570.48-991.03,595.512
					C37.458,652.101,1031.524,9.841,1046.319,35.467C1061.052,60.984,24.418,622.1,39.151,647.618
					c15.204,26.333,1037.31-634.003,1052.514-607.669C1106.875,66.294,36.636,645.595,51.846,671.94
					c15.49,26.829,1061.38-648.56,1076.869-621.731C1144.263,77.138,49.286,667.624,64.833,694.553
					c15.745,27.272,1077.06-658.204,1092.806-630.932C1173.458,91.021,55.9,686.102,71.719,713.502
					c16.054,27.806,1095.91-669.799,1111.964-641.993C1199.734,99.31,74.054,716.67,90.104,744.47
					C106.63,773.094,1219.892,54.022,1236.418,82.646C1252.94,111.262,93.464,745.517,109.986,774.133
					c16.826,29.143,1150.038-702.832,1166.863-673.689c16.796,29.091-1170.359,659.867-1153.563,688.958
					c16.921,29.308,1157.223-707.2,1174.144-677.892c16.769,29.044-1161.813,669.849-1145.044,698.893
					c16.972,29.396,1158.228-707.898,1175.199-678.502c16.772,29.05-1167.438,661.13-1150.666,690.18
					c16.93,29.324,1153.794-705.241,1170.724-675.918c16.546,28.658-1144.664,663.77-1128.118,692.428
					c16.735,28.986,1141.838-697.888,1158.573-668.902c16.391,28.39-1136.929,652.676-1120.538,681.066
					c16.454,28.5,1124.716-687.354,1141.17-658.855c16.109,27.902-1118.709,639.277-1102.6,667.179
					c16.126,27.931,1103.224-674.188,1119.35-646.257c16.135,27.947-1123.957,634.544-1107.822,662.491
					c16.197,28.053,1106.604-676.302,1122.8-648.249c16.097,27.881-1117.048,640.134-1100.951,668.015
					c16.177,28.02,1101.126-673.095,1117.304-645.076c16.269,28.179-1130.639,644.266-1114.37,672.445
					c16.232,28.114,1106.702-676.44,1122.934-648.326c16.34,28.301-1137.757,643.369-1121.418,671.671
					c16.497,28.574,1125.886-688.129,1142.383-659.555c16.526,28.624-1149.781,652.248-1133.255,680.871
					c16.671,28.875,1139.136-696.181,1155.807-667.305c16.602,28.755-1150.15,663.384-1133.548,692.139
					c16.706,28.935,1143.573-698.822,1160.279-669.887c16.513,28.602-1142.908,661.627-1126.395,690.229
					c16.57,28.701,1129.241-690.235,1145.812-661.535c16.448,28.489-1145.206,647.803-1128.758,676.292
					c16.448,28.49,1125.696-687.907,1142.145-659.418c16.391,28.389-1138.155,650.599-1121.764,678.989
					c16.268,28.177,1116.228-682.023,1132.496-653.847c16.147,27.967-1118.208,645.849-1102.062,673.815
					c15.927,27.586,1093.016-667.835,1108.943-640.248c15.75,27.28-1093.415,625.64-1077.664,652.92
					c15.6,27.02,1062.676-649.563,1078.276-622.543c15.369,26.619-1069.704,605.846-1054.336,632.465
					c15.509,26.862,1065.095-650.749,1080.604-623.887c15.229,26.378-1057.824,604.018-1042.594,630.397
					c15.256,26.425,1039.33-635.291,1054.587-608.866c14.902,25.81-1036.353,588.856-1021.452,614.666
					c14.929,25.858,1018.444-622.476,1033.373-596.618c14.376,24.901-996.648,573.345-982.271,598.245
					c14.367,24.884,980.809-599.449,995.176-574.565c13.749,23.815-952.49,549.483-938.741,573.298
					c13.695,23.721,938.113-573.248,951.808-549.527c12.971,22.467-898.573,518.389-885.602,540.856
					c12.837,22.234,878.484-536.838,891.321-514.604c12.605,21.832-869.14,510.319-856.535,532.151
					c12.652,21.914,861.971-526.878,874.623-504.964c12.61,21.841-876.846,498.502-864.236,520.343
					c12.617,21.854,859.488-525.365,872.106-503.51c12.615,21.851-873.182,505.394-860.567,527.245
					c12.51,21.668,859.737-525.26,872.247-503.592c12.463,21.587-859.803,503.873-847.34,525.459
					c12.299,21.302,842.003-514.534,854.302-493.232c12.184,21.103-839.583,494.095-827.4,515.197
					c12.007,20.797,818.799-500.463,830.806-479.666c12.048,20.868-833.701,482.976-821.653,503.844
					c11.844,20.515,811.014-495.593,822.859-475.078c11.792,20.425-812.494,478.422-800.702,498.847
					c11.645,20.17,792.606-484.505,804.251-464.335c11.643,20.166-803.634,470.028-791.991,490.194
					c11.458,19.846,779.923-476.75,791.381-456.904c11.497,19.913-789.288,470.997-777.791,490.911
					c11.205,19.407,765.447-467.807,776.651-448.4c11.198,19.395-774.447,449.614-763.25,469.009
					c11.009,19.068,755.894-461.841,766.904-442.772c11.064,19.163-764.305,445.607-753.241,464.77
					c10.777,18.667,734.716-449.077,745.493-430.411c10.768,18.651-744.854,432.167-734.086,450.819
					c10.537,18.25,717.693-438.694,728.23-420.444c10.562,18.293-724.294,433.895-713.733,452.188
					c1.295,2.243,90.449-55.211,91.744-52.968c1.425,2.468-84.184,75.926-82.759,78.394c1.242,2.151,89.143-54.334,90.384-52.183
					c1.294,2.241-79.222,65.906-77.928,68.148c1.151,1.994,82.388-50.225,83.539-48.231c1.064,1.843-62.11,57.474-61.046,59.317
					c0.981,1.7,62.913-38.59,63.895-36.89c0.55,0.952-11.007,41.769-10.458,42.722c0.19,0.328,9.511-4.412,9.7-4.084"/>
			</g>
			<path fill="none" stroke="#000000" stroke-width="7" stroke-linecap="round" stroke-linejoin="round" d="M1083.222,1454.236
				c64.796-26.898,137.834-22.046,207.716-15.84c248.434,22.065,497.691,55.574,746.358,36.317
				c34.203-2.649,68.32-6.293,102.431-9.937c-82.332,44.111-174.288,70.146-267.525,75.743"/>
		</g>
		<g>
			<path fill="none" stroke="#FF0000" stroke-width="7" stroke-linecap="round" stroke-linejoin="round" d="M3196.233,1454.995
				c-64.796-26.898-137.834-22.047-207.716-15.84c-248.434,22.065-497.691,55.574-746.358,36.317
				c-34.203-2.649-68.32-6.293-102.431-9.937c82.332,44.111,174.288,70.146,267.525,75.743"/>
			<g enable-background="new    ">
				<path fill="none" stroke="#FF0000" stroke-width="7" stroke-linecap="round" stroke-linejoin="round" d="M3338.486,70.56
					c0.848,1.469,57.538-35.178,58.386-33.709c2.405,4.165-152.971,115.572-150.566,119.737
					c3.69,6.392,257.582-157.238,261.272-150.846c4.694,8.13-310.536,209.716-305.843,217.846
					c5.416,9.381,371.121-226.775,376.537-217.394"/>
				<path fill="none" stroke="#FF0000" stroke-width="7" stroke-linecap="round" stroke-linejoin="round" d="M2567.31,81.381
					c0.871,1.509,59.402-36.308,60.273-34.799c2.178,3.772-139.281,103.726-137.103,107.498
					c3.524,6.104,244.239-149.15,247.763-143.046c4.421,7.657-292.01,198.174-287.59,205.831
					c5.304,9.187,364.135-222.482,369.439-213.296c5.822,10.084-394.308,246.823-388.486,256.907
					c6.359,11.014,428.33-261.982,434.689-250.968c6.876,11.909-464.092,293.925-457.216,305.835
					c7.425,12.86,506.126-309.358,513.551-296.498c7.796,13.503-530.035,327.427-522.239,340.93
					c8.224,14.243,562.309-343.641,570.533-329.397c8.451,14.638-583.525,340.851-575.074,355.489
					c8.623,14.934,587.057-358.85,595.679-343.915c8.907,15.428-607.492,371.169-598.585,386.597
					c9.208,15.949,630.772-385.441,639.98-369.493c9.371,16.232-647.154,377.852-637.783,394.083
					c9.513,16.476,651.651-398.199,661.164-381.723c9.807,16.987-671.738,404.252-661.93,421.24
					c9.896,17.141,681.079-416.076,690.975-398.935c9.979,17.284-689.646,401.49-679.667,418.774
					c10.106,17.505,685.488-419.107,695.594-401.602c10.183,17.637-699.171,416.996-688.988,434.633
					c10.345,17.918,702.634-429.557,712.979-411.639c10.495,18.178-723.831,424.643-713.336,442.821
					c10.501,18.188,716.975-438.196,727.476-420.008c10.491,18.171-722.577,426.044-712.086,444.215
					c10.624,18.401,719.234-439.784,729.858-421.383c10.692,18.519-734.359,437.495-723.667,456.014
					c10.718,18.565,735.111-449.169,745.829-430.605c10.801,18.708-747.732,432.454-736.931,451.162
					c10.755,18.628,736.907-450.29,747.662-431.663c10.782,18.675-741.246,440.046-730.464,458.721
					c16.869,29.219,1149.104-702.393,1165.973-673.175c16.885,29.246-1172.207,670.679-1155.322,699.924
					c17.306,29.976,1184.507-723.843,1201.814-693.868c17.377,30.097-1210.016,684.109-1192.639,714.206
					c17.597,30.479,1201.097-734.092,1218.694-703.613c17.602,30.487-1223.982,695.832-1206.38,726.32
					c17.886,30.98,1219.807-745.563,1237.694-714.583c17.825,30.874-1243.404,698.128-1225.579,729.002
					c18.065,31.29,1234.661-754.552,1252.727-723.262c18.032,31.233-1249.503,720.096-1231.471,751.329
					c18.341,31.768,1247.046-762.34,1265.387-730.572c18.3,31.696-1272.366,723.687-1254.066,755.383
					c18.507,32.055,1267.62-774.601,1286.127-742.546c18.533,32.1-1288.67,732.692-1270.137,764.792
					c18.634,32.274,1275.158-779.245,1293.792-746.971c18.631,32.27-1298.623,731.349-1279.992,763.619
					c18.708,32.402,1273.133-778.247,1291.84-745.844c18.654,32.309-1295.007,740.918-1276.354,773.228
					c18.777,32.522,1284.097-784.737,1302.874-752.215c18.673,32.343-1299.188,736.985-1280.514,769.327
					c18.8,32.562,1282.19-783.689,1300.99-751.127c18.77,32.51-1303.863,744.15-1285.094,776.66
					c18.792,32.548,1285.246-785.434,1304.037-752.886c18.749,32.474-1299.885,747.557-1281.136,780.032
					c18.736,32.452,1279.352-781.904,1298.089-749.452c18.68,32.354-1298.855,738.582-1280.176,770.936
					c18.658,32.317,1278.478-781.219,1297.136-748.902c18.7,32.39-1304.502,732.383-1285.802,764.773
					c18.587,32.193,1271.143-776.819,1289.729-744.626c18.518,32.073-1290.233,727.742-1271.715,759.815
					c18.487,32.02,1262.836-771.792,1281.323-739.772c18.344,31.772-1271.637,731.652-1253.294,763.424
					c18.295,31.689,1250.017-763.949,1268.312-732.26c18.233,31.581-1263.772,727.564-1245.539,759.145
					c18.059,31.279,1235.438-754.985,1253.497-723.706c17.942,31.078-1243.384,716.379-1225.442,747.457
					c17.776,30.789,1212.788-741.255,1230.564-710.467c17.708,30.671-1226.034,708.743-1208.327,739.414
					c17.427,30.184,1188.083-726.185,1205.509-696.001c17.282,29.933-1202.672,681.64-1185.39,711.573
					c17.167,29.734,1174.487-717.736,1191.654-688.002c17.133,29.675-1191.753,676.612-1174.621,706.287
					c16.872,29.223,1153.107-704.711,1169.979-675.488c16.723,28.964-1159.017,667.359-1142.295,696.323
					c16.44,28.474,1115.181-681.815,1131.62-653.341c16.316,28.26-1135.109,644.088-1118.793,672.348
					c16.097,27.88,1102.434-673.664,1118.531-645.784c15.97,27.662-1106.71,637.668-1090.74,665.33
					c15.584,26.993,1063.433-649.964,1079.018-622.971c15.519,26.88-1080.814,610.768-1065.295,637.649
					c15.229,26.378,1039.861-635.534,1055.09-609.157c15.113,26.176-1046.531,604.654-1031.418,630.831
					c14.619,25.32,997.718-609.793,1012.337-584.473c14.492,25.101-1003.471,579.936-988.979,605.037
					c13.966,24.189,955.218-583.747,969.183-559.558c13.897,24.071-965.791,550.346-951.893,574.417
					c13.442,23.282,914.099-558.798,927.541-535.516c13.231,22.917-917.746,526.844-904.515,549.76
					c12.812,22.19,867.041-530.173,879.852-507.983c12.584,21.795-866.879,510.741-854.295,532.537
					c11.808,20.451,802.167-490.399,813.974-469.948c11.73,20.318-814.392,465.898-802.662,486.215
					c11.162,19.333,765.434-467.701,776.596-448.368c11.013,19.075-760.421,444.17-749.408,463.245
					c10.209,17.683,695.811-425.304,706.021-407.621c10.07,17.442-692.283,411.047-682.213,428.489
					c8.994,15.577,610.937-373.495,619.931-357.917c8.877,15.376-606.282,368.618-597.405,383.994
					c7.395,12.808,509.44-311.203,516.835-298.395c7.309,12.66-499.6,302.899-492.29,315.559
					c5.894,10.208,407.529-248.898,413.423-238.69c5.908,10.233-405.307,242.458-399.399,252.691
					c4.674,8.095,323.335-197.471,328.008-189.376c4.538,7.86-301.977,200.312-297.439,208.172
					c2.258,3.912,150.755-92.254,153.014-88.342c2.086,3.613-135.943,96.034-133.857,99.647"/>
			</g>
		</g>
		<path fill="none" stroke="#000000" stroke-width="7" stroke-linecap="round" stroke-linejoin="round" d="M2165.25,1479.244
			c-9.942-3.748-19.422-8.721-28.158-14.77c-4.532-3.138-9.013-6.745-11.406-11.711c-2.393-4.966-2.106-11.61,2.018-15.268
			c3.707-3.288,9.23-3.317,14.147-2.708c3.178,0.394,6.813,1.332,8.127,4.252c1.275,2.834-0.294,6.088-1.956,8.713
			c-7.313,11.549-17.252,21.425-28.848,28.664"/>
		<path fill="none" stroke="#FF0000" stroke-width="7" stroke-linecap="round" stroke-linejoin="round" d="M2139.527,1466.056
			c-4.688-1.494-8.266-5.981-8.678-10.884s2.367-9.925,6.739-12.18c3.253-1.678,7.655-1.667,10.197,0.965
			c1.935,2.004,2.393,5.112,1.729,7.817s-2.297,5.072-4.104,7.192c-6.533,7.662-15.835,12.912-25.771,14.545"/>
	</g>
</g>
</svg>
